<svg width="34" height="39" viewBox="0 0 34 39" fill="none" xmlns="http://www.w3.org/2000/svg">
<path d="M16.2917 35.75C14.1194 35.75 12.2778 34.8833 10.7667 33.15C9.25556 31.4167 8.5 29.3042 8.5 26.8125V9.75C8.5 7.9625 9.05486 6.43229 10.1646 5.15938C11.2743 3.88646 12.6083 3.25 14.1667 3.25C15.725 3.25 17.059 3.88646 18.1688 5.15938C19.2785 6.43229 19.8333 7.9625 19.8333 9.75V25.1875C19.8333 26.325 19.491 27.2865 18.8063 28.0719C18.1215 28.8573 17.2833 29.25 16.2917 29.25C15.3 29.25 14.4618 28.8573 13.7771 28.0719C13.0924 27.2865 12.75 26.325 12.75 25.1875V9.75H14.875V25.1875C14.875 25.6479 15.0108 26.0339 15.2823 26.3453C15.5538 26.6568 15.8903 26.8125 16.2917 26.8125C16.6931 26.8125 17.0295 26.6568 17.301 26.3453C17.5726 26.0339 17.7083 25.6479 17.7083 25.1875V9.75C17.7083 8.6125 17.366 7.65104 16.6813 6.86563C15.9965 6.08021 15.1583 5.6875 14.1667 5.6875C13.175 5.6875 12.3368 6.08021 11.6521 6.86563C10.9674 7.65104 10.625 8.6125 10.625 9.75V26.8125C10.625 28.6 11.1799 30.1302 12.2896 31.4031C13.3993 32.676 14.7333 33.3125 16.2917 33.3125C17.85 33.3125 19.184 32.676 20.2938 31.4031C21.4035 30.1302 21.9583 28.6 21.9583 26.8125V9.75H24.0833V26.8125C24.0833 29.3042 23.3278 31.4167 21.8167 33.15C20.3056 34.8833 18.4639 35.75 16.2917 35.75Z" fill="#1D1B20"/>
</svg>
