<svg width="33" height="33" viewBox="0 0 33 33" fill="none" xmlns="http://www.w3.org/2000/svg">
<g filter="url(#filter0_dd_968_696)">
<path d="M25.9571 1.70941C23.3694 -0.896568 19.5211 -0.427827 17.1459 2.46833L16.2157 3.60112L15.2855 2.46833C12.9151 -0.427827 9.06196 -0.896568 6.47434 1.70941C3.50896 4.70043 3.35313 10.0686 6.00686 13.3108L15.1438 24.4601C15.7341 25.18 16.6926 25.18 17.2829 24.4601L26.4198 13.3108C29.0783 10.0686 28.9224 4.70043 25.9571 1.70941Z" fill="#5B9386"/>
<path d="M17.5323 2.78564L17.5325 2.78539C19.7515 0.0796784 23.2571 -0.300088 25.6023 2.06171C28.3802 4.86402 28.5352 9.94238 26.0332 12.9937L26.0331 12.9938L16.8962 24.1431C16.688 24.397 16.4385 24.5 16.2133 24.5C15.9882 24.5 15.7387 24.397 15.5305 24.1431L6.39378 12.9941C3.89604 9.94251 4.05116 4.86371 6.82941 2.06144C9.17477 -0.300254 12.6847 0.0801088 14.8986 2.78501L14.8991 2.78564L15.8293 3.91843L16.2157 4.38899L16.6021 3.91843L17.5323 2.78564Z" stroke="#FFFEFE"/>
</g>
<defs>
<filter id="filter0_dd_968_696" x="0.126953" y="0" width="32.1768" height="33" filterUnits="userSpaceOnUse" color-interpolation-filters="sRGB">
<feFlood flood-opacity="0" result="BackgroundImageFix"/>
<feColorMatrix in="SourceAlpha" type="matrix" values="0 0 0 0 0 0 0 0 0 0 0 0 0 0 0 0 0 0 127 0" result="hardAlpha"/>
<feOffset dy="4"/>
<feGaussianBlur stdDeviation="2"/>
<feComposite in2="hardAlpha" operator="out"/>
<feColorMatrix type="matrix" values="0 0 0 0 0 0 0 0 0 0 0 0 0 0 0 0 0 0 0.25 0"/>
<feBlend mode="normal" in2="BackgroundImageFix" result="effect1_dropShadow_968_696"/>
<feColorMatrix in="SourceAlpha" type="matrix" values="0 0 0 0 0 0 0 0 0 0 0 0 0 0 0 0 0 0 127 0" result="hardAlpha"/>
<feOffset dy="4"/>
<feGaussianBlur stdDeviation="2"/>
<feComposite in2="hardAlpha" operator="out"/>
<feColorMatrix type="matrix" values="0 0 0 0 0 0 0 0 0 0 0 0 0 0 0 0 0 0 0.25 0"/>
<feBlend mode="normal" in2="effect1_dropShadow_968_696" result="effect2_dropShadow_968_696"/>
<feBlend mode="normal" in="SourceGraphic" in2="effect2_dropShadow_968_696" result="shape"/>
</filter>
</defs>
</svg>
